<svg width="783" height="747" viewBox="0 0 783 747" fill="none" xmlns="http://www.w3.org/2000/svg">
<path d="M41.7538 490.183C139.966 420.699 187.392 403.921 323.227 426.027C443.293 464.051 497.987 495.999 545.611 568.753C567.773 615.466 547.675 655.214 527.157 682.61C506.446 710.261 475.404 717.139 442.456 716.877C328.649 715.973 189.352 603.44 160.434 503.26C116.801 352.103 186.518 190.787 339.507 134.321C412.061 107.543 531.948 136.123 602.503 161.202C648.874 177.685 704.78 213.43 736.33 252.225C776.452 301.559 740.04 390.633 661.843 396.294C574.608 402.61 481.169 330.638 418.693 277.019C367.345 232.951 300.689 95.5105 291.86 33.8883" stroke="#4E4E4E" stroke-opacity="0.2" stroke-width="58.89" stroke-linecap="square"/>
</svg>
