<svg width="312" height="142" viewBox="0 0 312 142" fill="none" xmlns="http://www.w3.org/2000/svg">
<path d="M19.6398 88.498C34.3918 78.0611 41.5154 75.541 61.9185 78.8615C79.9529 84.5729 88.1681 89.3716 95.3215 100.299C98.6503 107.316 95.6316 113.286 92.5496 117.401C89.4388 121.555 84.7761 122.588 79.8272 122.548C62.7328 122.413 41.8097 105.51 37.4661 90.4622C30.9123 67.7577 41.384 43.5274 64.3638 35.0459C75.2617 31.0237 93.2693 35.3165 103.867 39.0835C110.832 41.5594 119.229 46.9283 123.968 52.7555C129.995 60.1658 124.526 73.5452 112.78 74.3955C99.677 75.3441 85.642 64.5337 76.2578 56.4798C68.5452 49.8606 58.5331 29.2163 57.2069 19.9604" stroke="#CBC2AD" stroke-width="8.84555" stroke-linecap="square"/>
<mask id="path-2-outside-1_44_29" maskUnits="userSpaceOnUse" x="155.955" y="64.825" width="154" height="34" fill="black">
<rect fill="white" x="155.955" y="64.825" width="154" height="34"/>
<path d="M177.864 80.9302C179.722 81.4818 181.145 82.3818 182.132 83.6301C183.119 84.8785 183.612 86.4171 183.612 88.2461C183.612 90.9461 182.582 93.0509 180.521 94.5605C178.488 96.0701 175.571 96.825 171.768 96.825H156.744V66.3418H170.94C174.482 66.3418 177.24 67.0241 179.214 68.3886C181.188 69.753 182.175 71.6982 182.175 74.2239C182.175 75.7335 181.798 77.069 181.043 78.2302C180.288 79.3625 179.229 80.2625 177.864 80.9302ZM163.755 78.9706H170.33C171.869 78.9706 173.03 78.6657 173.814 78.0561C174.598 77.4174 174.99 76.4884 174.99 75.269C174.99 74.0787 174.584 73.1642 173.771 72.5256C172.987 71.8869 171.84 71.5675 170.33 71.5675H163.755V78.9706ZM171.506 91.5993C174.816 91.5993 176.471 90.2929 176.471 87.68C176.471 85.1543 174.816 83.8914 171.506 83.8914H163.755V91.5993H171.506ZM215.407 66.3418V96.825H208.57V93.1234C206.48 95.9395 203.402 97.3475 199.338 97.3475C195.738 97.3475 192.922 96.2153 190.89 93.9508C188.887 91.6573 187.885 88.4058 187.885 84.1962V66.3418H194.94V83.9785C194.94 86.4171 195.506 88.2606 196.638 89.509C197.799 90.7283 199.367 91.338 201.341 91.338C203.461 91.338 205.159 90.6848 206.436 89.3784C207.714 88.0429 208.352 86.0833 208.352 83.4995V66.3418H215.407ZM227.426 66.3418L233.74 75.5739L240.054 66.3418H248.328L238.182 80.9302L249.156 96.825H240.838L233.74 86.722L226.729 96.825H218.586L229.472 81.235L219.282 66.3418H227.426ZM264.529 66.037C268.797 66.037 272.121 67.0821 274.502 69.1724C276.911 71.2627 278.116 74.1949 278.116 77.969C278.116 81.5398 277.027 84.3414 274.85 86.3736C272.702 88.4058 269.683 89.4219 265.792 89.4219C264.515 89.4219 263.267 89.2913 262.047 89.03C260.857 88.7687 259.565 88.3332 258.172 87.7236V96.825H251.204V78.7964C251.204 74.7029 252.336 71.553 254.601 69.3466C256.894 67.1402 260.204 66.037 264.529 66.037ZM264.573 84.1091C266.634 84.1091 268.216 83.5866 269.32 82.5414C270.452 81.4963 271.018 80.0157 271.018 78.0996C271.018 76.1545 270.452 74.6449 269.32 73.5707C268.216 72.4965 266.678 71.9594 264.704 71.9594C262.642 71.9594 261.031 72.5546 259.87 73.7449C258.738 74.9352 258.172 76.6045 258.172 78.7528V82.1495C259.042 82.7592 260.03 83.2382 261.133 83.5866C262.265 83.9349 263.412 84.1091 264.573 84.1091ZM296.447 75.5303C300.105 75.5303 302.993 76.4738 305.113 78.3609C307.261 80.2479 308.335 82.8898 308.335 86.2865C308.335 89.8283 307.145 92.5718 304.764 94.5169C302.384 96.4621 299.002 97.4346 294.618 97.4346C290.292 97.4346 287.012 96.4621 284.776 94.5169C282.541 92.5718 281.423 89.7122 281.423 85.9381V66.3418H288.391V77.3158C291.149 76.1255 293.834 75.5303 296.447 75.5303ZM294.923 91.9477C296.926 91.9477 298.479 91.4686 299.582 90.5106C300.685 89.5526 301.237 88.2171 301.237 86.5042C301.237 84.7333 300.642 83.3688 299.452 82.4108C298.29 81.4237 296.737 80.9302 294.792 80.9302C293.718 80.9302 292.615 81.1044 291.482 81.4528C290.35 81.7721 289.32 82.2366 288.391 82.8463V85.7639C288.391 87.7381 288.957 89.2622 290.089 90.3364C291.221 91.4106 292.832 91.9477 294.923 91.9477Z"/>
</mask>
<path d="M177.864 80.9302C179.722 81.4818 181.145 82.3818 182.132 83.6301C183.119 84.8785 183.612 86.4171 183.612 88.2461C183.612 90.9461 182.582 93.0509 180.521 94.5605C178.488 96.0701 175.571 96.825 171.768 96.825H156.744V66.3418H170.94C174.482 66.3418 177.24 67.0241 179.214 68.3886C181.188 69.753 182.175 71.6982 182.175 74.2239C182.175 75.7335 181.798 77.069 181.043 78.2302C180.288 79.3625 179.229 80.2625 177.864 80.9302ZM163.755 78.9706H170.33C171.869 78.9706 173.03 78.6657 173.814 78.0561C174.598 77.4174 174.99 76.4884 174.99 75.269C174.99 74.0787 174.584 73.1642 173.771 72.5256C172.987 71.8869 171.84 71.5675 170.33 71.5675H163.755V78.9706ZM171.506 91.5993C174.816 91.5993 176.471 90.2929 176.471 87.68C176.471 85.1543 174.816 83.8914 171.506 83.8914H163.755V91.5993H171.506ZM215.407 66.3418V96.825H208.57V93.1234C206.48 95.9395 203.402 97.3475 199.338 97.3475C195.738 97.3475 192.922 96.2153 190.89 93.9508C188.887 91.6573 187.885 88.4058 187.885 84.1962V66.3418H194.94V83.9785C194.94 86.4171 195.506 88.2606 196.638 89.509C197.799 90.7283 199.367 91.338 201.341 91.338C203.461 91.338 205.159 90.6848 206.436 89.3784C207.714 88.0429 208.352 86.0833 208.352 83.4995V66.3418H215.407ZM227.426 66.3418L233.74 75.5739L240.054 66.3418H248.328L238.182 80.9302L249.156 96.825H240.838L233.74 86.722L226.729 96.825H218.586L229.472 81.235L219.282 66.3418H227.426ZM264.529 66.037C268.797 66.037 272.121 67.0821 274.502 69.1724C276.911 71.2627 278.116 74.1949 278.116 77.969C278.116 81.5398 277.027 84.3414 274.85 86.3736C272.702 88.4058 269.683 89.4219 265.792 89.4219C264.515 89.4219 263.267 89.2913 262.047 89.03C260.857 88.7687 259.565 88.3332 258.172 87.7236V96.825H251.204V78.7964C251.204 74.7029 252.336 71.553 254.601 69.3466C256.894 67.1402 260.204 66.037 264.529 66.037ZM264.573 84.1091C266.634 84.1091 268.216 83.5866 269.32 82.5414C270.452 81.4963 271.018 80.0157 271.018 78.0996C271.018 76.1545 270.452 74.6449 269.32 73.5707C268.216 72.4965 266.678 71.9594 264.704 71.9594C262.642 71.9594 261.031 72.5546 259.87 73.7449C258.738 74.9352 258.172 76.6045 258.172 78.7528V82.1495C259.042 82.7592 260.03 83.2382 261.133 83.5866C262.265 83.9349 263.412 84.1091 264.573 84.1091ZM296.447 75.5303C300.105 75.5303 302.993 76.4738 305.113 78.3609C307.261 80.2479 308.335 82.8898 308.335 86.2865C308.335 89.8283 307.145 92.5718 304.764 94.5169C302.384 96.4621 299.002 97.4346 294.618 97.4346C290.292 97.4346 287.012 96.4621 284.776 94.5169C282.541 92.5718 281.423 89.7122 281.423 85.9381V66.3418H288.391V77.3158C291.149 76.1255 293.834 75.5303 296.447 75.5303ZM294.923 91.9477C296.926 91.9477 298.479 91.4686 299.582 90.5106C300.685 89.5526 301.237 88.2171 301.237 86.5042C301.237 84.7333 300.642 83.3688 299.452 82.4108C298.29 81.4237 296.737 80.9302 294.792 80.9302C293.718 80.9302 292.615 81.1044 291.482 81.4528C290.35 81.7721 289.32 82.2366 288.391 82.8463V85.7639C288.391 87.7381 288.957 89.2622 290.089 90.3364C291.221 91.4106 292.832 91.9477 294.923 91.9477Z" fill="#CBC2AD"/>
<path d="M177.864 80.9302L177.565 80.319L175.998 81.0859L177.67 81.5825L177.864 80.9302ZM182.132 83.6301L181.598 84.0521L182.132 83.6301ZM180.521 94.5605L180.118 94.0115L180.115 94.0143L180.521 94.5605ZM156.744 96.825H156.063V97.5054H156.744V96.825ZM156.744 66.3418V65.6614H156.063V66.3418H156.744ZM179.214 68.3886L179.601 67.8288L179.601 67.8288L179.214 68.3886ZM181.043 78.2302L181.609 78.6077L181.614 78.6011L181.043 78.2302ZM163.755 78.9706H163.074V79.651H163.755V78.9706ZM173.814 78.0561L174.232 78.5932L174.238 78.5884L174.244 78.5836L173.814 78.0561ZM173.771 72.5256L173.341 73.0531L173.35 73.0606L173.771 72.5256ZM163.755 71.5675V70.8871H163.074V71.5675H163.755ZM163.755 83.8914V83.211H163.074V83.8914H163.755ZM163.755 91.5993H163.074V92.2797H163.755V91.5993ZM177.67 81.5825C179.424 82.103 180.715 82.9358 181.598 84.0521L182.666 83.2081C181.574 81.8277 180.02 80.8606 178.058 80.2779L177.67 81.5825ZM181.598 84.0521C182.476 85.1628 182.932 86.5463 182.932 88.2461H184.293C184.293 86.288 183.761 84.5942 182.666 83.2081L181.598 84.0521ZM182.932 88.2461C182.932 90.7436 181.993 92.6384 180.118 94.0115L180.923 95.1094C183.17 93.4633 184.293 91.1485 184.293 88.2461H182.932ZM180.115 94.0143C178.246 95.4028 175.494 96.1445 171.768 96.1445V97.5054C175.647 97.5054 178.731 96.7375 180.926 95.1067L180.115 94.0143ZM171.768 96.1445H156.744V97.5054H171.768V96.1445ZM157.424 96.825V66.3418H156.063V96.825H157.424ZM156.744 67.0223H170.94V65.6614H156.744V67.0223ZM170.94 67.0223C174.406 67.0223 177.009 67.6916 178.827 68.9483L179.601 67.8288C177.471 66.3565 174.558 65.6614 170.94 65.6614V67.0223ZM178.827 68.9483C180.606 70.178 181.495 71.9077 181.495 74.2239H182.856C182.856 71.4886 181.77 69.3281 179.601 67.8288L178.827 68.9483ZM181.495 74.2239C181.495 75.6142 181.149 76.8184 180.473 77.8594L181.614 78.6011C182.447 77.3195 182.856 75.8528 182.856 74.2239H181.495ZM180.477 77.8528C179.796 78.8736 178.834 79.6979 177.565 80.319L178.163 81.5414C179.623 80.827 180.78 79.8514 181.609 78.6077L180.477 77.8528ZM163.755 79.651H170.33V78.2901H163.755V79.651ZM170.33 79.651C171.942 79.651 173.279 79.3345 174.232 78.5932L173.396 77.519C172.782 77.997 171.796 78.2901 170.33 78.2901V79.651ZM174.244 78.5836C175.219 77.7888 175.67 76.6463 175.67 75.269H174.31C174.31 76.3304 173.977 77.0459 173.384 77.5286L174.244 78.5836ZM175.67 75.269C175.67 73.9056 175.194 72.7788 174.191 71.9905L173.35 73.0606C173.973 73.5497 174.31 74.2518 174.31 75.269H175.67ZM174.201 71.9981C173.248 71.222 171.922 70.8871 170.33 70.8871V72.2479C171.758 72.2479 172.726 72.5517 173.341 73.053L174.201 71.9981ZM170.33 70.8871H163.755V72.2479H170.33V70.8871ZM163.074 71.5675V78.9706H164.435V71.5675H163.074ZM171.506 92.2797C173.232 92.2797 174.652 91.9421 175.651 91.1535C176.681 90.3407 177.151 89.1398 177.151 87.68H175.79C175.79 88.8331 175.433 89.5918 174.808 90.0854C174.152 90.6032 173.09 90.9188 171.506 90.9188V92.2797ZM177.151 87.68C177.151 86.2555 176.675 85.0856 175.642 84.2976C174.645 83.5362 173.228 83.211 171.506 83.211V84.5718C173.094 84.5718 174.16 84.878 174.817 85.3795C175.439 85.8543 175.79 86.5788 175.79 87.68H177.151ZM171.506 83.211H163.755V84.5718H171.506V83.211ZM163.074 83.8914V91.5993H164.435V83.8914H163.074ZM163.755 92.2797H171.506V90.9188H163.755V92.2797ZM215.407 66.3418H216.087V65.6614H215.407V66.3418ZM215.407 96.825V97.5054H216.087V96.825H215.407ZM208.57 96.825H207.89V97.5054H208.57V96.825ZM208.57 93.1234H209.251V91.0651L208.024 92.7179L208.57 93.1234ZM190.89 93.9508L190.377 94.3985L190.383 94.4053L190.89 93.9508ZM187.885 66.3418V65.6614H187.205V66.3418H187.885ZM194.94 66.3418H195.62V65.6614H194.94V66.3418ZM196.638 89.509L196.134 89.9661L196.14 89.9723L196.145 89.9783L196.638 89.509ZM206.436 89.3784L206.923 89.8541L206.928 89.8487L206.436 89.3784ZM208.352 66.3418V65.6614H207.672V66.3418H208.352ZM214.727 66.3418V96.825H216.087V66.3418H214.727ZM215.407 96.1445H208.57V97.5054H215.407V96.1445ZM209.251 96.825V93.1234H207.89V96.825H209.251ZM208.024 92.7179C206.083 95.3319 203.226 96.6671 199.338 96.6671V98.0279C203.579 98.0279 206.876 96.547 209.116 93.529L208.024 92.7179ZM199.338 96.6671C195.893 96.6671 193.276 95.5905 191.396 93.4964L190.383 94.4053C192.569 96.8401 195.584 98.0279 199.338 98.0279V96.6671ZM191.402 93.5032C189.543 91.3741 188.566 88.3041 188.566 84.1962H187.205C187.205 88.5075 188.231 91.9406 190.377 94.3984L191.402 93.5032ZM188.566 84.1962V66.3418H187.205V84.1962H188.566ZM187.885 67.0223H194.94V65.6614H187.885V67.0223ZM194.259 66.3418V83.9785H195.62V66.3418H194.259ZM194.259 83.9785C194.259 86.5115 194.847 88.5466 196.134 89.9661L197.142 89.0519C196.165 87.9747 195.62 86.3228 195.62 83.9785H194.259ZM196.145 89.9783C197.457 91.3558 199.216 92.0184 201.341 92.0184V90.6576C199.518 90.6576 198.141 90.1009 197.131 89.0397L196.145 89.9783ZM201.341 92.0184C203.612 92.0184 205.497 91.3125 206.923 89.8541L205.95 88.9027C204.821 90.0571 203.309 90.6576 201.341 90.6576V92.0184ZM206.928 89.8487C208.368 88.3435 209.033 86.1881 209.033 83.4995H207.672C207.672 85.9784 207.06 87.7423 205.945 88.908L206.928 89.8487ZM209.033 83.4995V66.3418H207.672V83.4995H209.033ZM208.352 67.0223H215.407V65.6614H208.352V67.0223ZM227.426 66.3418L227.987 65.9577L227.785 65.6614H227.426V66.3418ZM233.74 75.5739L233.178 75.958L233.74 76.7791L234.302 75.958L233.74 75.5739ZM240.054 66.3418V65.6614H239.695L239.493 65.9577L240.054 66.3418ZM248.328 66.3418L248.887 66.7304L249.631 65.6614H248.328V66.3418ZM238.182 80.9302L237.623 80.5417L237.354 80.9288L237.622 81.3168L238.182 80.9302ZM249.156 96.825V97.5054H250.452L249.716 96.4384L249.156 96.825ZM240.838 96.825L240.282 97.2161L240.485 97.5054H240.838V96.825ZM233.74 86.722L234.297 86.3308L233.737 85.5335L233.181 86.334L233.74 86.722ZM226.729 96.825V97.5054H227.085L227.288 97.2129L226.729 96.825ZM218.586 96.825L218.028 96.4354L217.281 97.5054H218.586V96.825ZM229.472 81.235L230.03 81.6246L230.3 81.239L230.034 80.8508L229.472 81.235ZM219.282 66.3418V65.6614H217.992L218.721 66.7261L219.282 66.3418ZM226.864 66.726L233.178 75.958L234.302 75.1897L227.987 65.9577L226.864 66.726ZM234.302 75.958L240.616 66.726L239.493 65.9577L233.178 75.1897L234.302 75.958ZM240.054 67.0223H248.328V65.6614H240.054V67.0223ZM247.77 65.9533L237.623 80.5417L238.741 81.3187L248.887 66.7304L247.77 65.9533ZM237.622 81.3168L248.596 97.2115L249.716 96.4384L238.742 80.5436L237.622 81.3168ZM249.156 96.1445H240.838V97.5054H249.156V96.1445ZM241.395 96.4338L234.297 86.3308L233.183 87.1131L240.282 97.2161L241.395 96.4338ZM233.181 86.334L226.17 96.437L227.288 97.2129L234.299 87.1099L233.181 86.334ZM226.729 96.1445H218.586V97.5054H226.729V96.1445ZM219.144 97.2145L230.03 81.6246L228.915 80.8454L218.028 96.4354L219.144 97.2145ZM230.034 80.8508L219.844 65.9576L218.721 66.7261L228.911 81.6192L230.034 80.8508ZM219.282 67.0223H227.426V65.6614H219.282V67.0223ZM274.502 69.1724L274.053 69.6837L274.056 69.6864L274.502 69.1724ZM274.85 86.3736L274.386 85.8762L274.383 85.8793L274.85 86.3736ZM262.047 89.03L261.901 89.6946L261.905 89.6953L262.047 89.03ZM258.172 87.7236L258.444 87.1002L257.491 86.6832V87.7236H258.172ZM258.172 96.825V97.5054H258.852V96.825H258.172ZM251.204 96.825H250.524V97.5054H251.204V96.825ZM254.601 69.3466L254.129 68.8562L254.126 68.8593L254.601 69.3466ZM269.32 82.5414L268.858 82.0414L268.852 82.0475L269.32 82.5414ZM269.32 73.5707L268.845 74.0582L268.851 74.0643L269.32 73.5707ZM259.87 73.7449L259.383 73.2697L259.377 73.2759L259.87 73.7449ZM258.172 82.1495H257.491V82.5038L257.781 82.7069L258.172 82.1495ZM261.133 83.5866L260.928 84.2354L260.933 84.2369L261.133 83.5866ZM264.529 66.7174C268.69 66.7174 271.834 67.7354 274.053 69.6837L274.951 68.6611C272.408 66.4289 268.904 65.3566 264.529 65.3566V66.7174ZM274.056 69.6864C276.289 71.6235 277.436 74.3523 277.436 77.969H278.797C278.797 74.0374 277.534 70.9019 274.948 68.6584L274.056 69.6864ZM277.436 77.969C277.436 81.3919 276.398 83.998 274.386 85.8762L275.314 86.871C277.657 84.6848 278.797 81.6878 278.797 77.969H277.436ZM274.383 85.8793C272.396 87.7581 269.565 88.7415 265.792 88.7415V90.1023C269.8 90.1023 273.007 89.0535 275.318 86.8679L274.383 85.8793ZM265.792 88.7415C264.562 88.7415 263.361 88.6157 262.19 88.3647L261.905 89.6953C263.172 89.9669 264.468 90.1023 265.792 90.1023V88.7415ZM262.193 88.3654C261.055 88.1157 259.806 87.6962 258.444 87.1002L257.899 88.3469C259.324 88.9703 260.658 89.4217 261.901 89.6946L262.193 88.3654ZM257.491 87.7236V96.825H258.852V87.7236H257.491ZM258.172 96.1445H251.204V97.5054H258.172V96.1445ZM251.884 96.825V78.7964H250.524V96.825H251.884ZM251.884 78.7964C251.884 74.8298 252.978 71.8775 255.075 69.8339L254.126 68.8593C251.694 71.2285 250.524 74.5761 250.524 78.7964H251.884ZM255.072 69.837C257.199 67.7909 260.315 66.7174 264.529 66.7174V65.3566C260.092 65.3566 256.589 66.4895 254.129 68.8562L255.072 69.837ZM264.573 84.7896C266.745 84.7896 268.519 84.2376 269.788 83.0354L268.852 82.0475C267.914 82.9355 266.523 83.4287 264.573 83.4287V84.7896ZM269.781 83.0414C271.086 81.8373 271.698 80.156 271.698 78.0996H270.338C270.338 79.8753 269.818 81.1553 268.858 82.0415L269.781 83.0414ZM271.698 78.0996C271.698 76.0168 271.087 74.3099 269.788 73.0771L268.851 74.0643C269.816 74.9798 270.338 76.2921 270.338 78.0996H271.698ZM269.794 73.0832C268.531 71.8531 266.803 71.279 264.704 71.279V72.6399C266.553 72.6399 267.902 73.1399 268.845 74.0582L269.794 73.0832ZM264.704 71.279C262.506 71.279 260.701 71.9181 259.383 73.2697L260.357 74.22C261.361 73.191 262.779 72.6399 264.704 72.6399V71.279ZM259.377 73.2759C258.091 74.6279 257.491 76.4854 257.491 78.7528H258.852C258.852 76.7236 259.384 75.2425 260.363 74.2138L259.377 73.2759ZM257.491 78.7528V82.1495H258.852V78.7528H257.491ZM257.781 82.7069C258.714 83.3597 259.764 83.868 260.928 84.2354L261.338 82.9377C260.295 82.6084 259.371 82.1587 258.562 81.5921L257.781 82.7069ZM260.933 84.2369C262.128 84.6048 263.342 84.7896 264.573 84.7896V83.4287C263.481 83.4287 262.402 83.2651 261.333 82.9362L260.933 84.2369ZM305.113 78.3609L304.66 78.8691L304.664 78.8721L305.113 78.3609ZM304.764 94.5169L304.334 93.99L304.764 94.5169ZM284.776 94.5169L285.223 94.0036L284.776 94.5169ZM281.423 66.3418V65.6614H280.743V66.3418H281.423ZM288.391 66.3418H289.071V65.6614H288.391V66.3418ZM288.391 77.3158H287.71V78.3505L288.66 77.9405L288.391 77.3158ZM299.582 90.5106L299.136 89.9968L299.582 90.5106ZM299.452 82.4108L299.011 82.9292L299.018 82.9351L299.025 82.9409L299.452 82.4108ZM291.482 81.4528L291.667 82.1076L291.675 82.1054L291.683 82.1031L291.482 81.4528ZM288.391 82.8463L288.017 82.2774L287.71 82.4789V82.8463H288.391ZM296.447 76.2107C299.988 76.2107 302.698 77.122 304.66 78.8691L305.565 77.8527C303.289 75.8257 300.222 74.8499 296.447 74.8499V76.2107ZM304.664 78.8721C306.637 80.6055 307.655 83.0452 307.655 86.2865H309.016C309.016 82.7344 307.885 79.8903 305.562 77.8497L304.664 78.8721ZM307.655 86.2865C307.655 89.6589 306.531 92.1947 304.334 93.99L305.195 95.0439C307.759 92.949 309.016 89.9978 309.016 86.2865H307.655ZM304.334 93.99C302.117 95.8011 298.91 96.7542 294.618 96.7542V98.115C299.093 98.115 302.65 97.123 305.195 95.0438L304.334 93.99ZM294.618 96.7542C290.382 96.7542 287.288 95.8008 285.223 94.0036L284.33 95.0303C286.735 97.1234 290.202 98.115 294.618 98.115V96.7542ZM285.223 94.0036C283.175 92.2214 282.103 89.5732 282.103 85.9381H280.743C280.743 89.8512 281.907 92.9223 284.33 95.0303L285.223 94.0036ZM282.103 85.9381V66.3418H280.743V85.9381H282.103ZM281.423 67.0223H288.391V65.6614H281.423V67.0223ZM287.71 66.3418V77.3158H289.071V66.3418H287.71ZM288.66 77.9405C291.346 76.7815 293.94 76.2107 296.447 76.2107V74.8499C293.728 74.8499 290.951 75.4695 288.121 76.691L288.66 77.9405ZM294.923 92.6281C297.029 92.6281 298.762 92.124 300.028 91.0243L299.136 89.9968C298.196 90.8132 296.823 91.2672 294.923 91.2672V92.6281ZM300.028 91.0243C301.307 89.9144 301.917 88.3767 301.917 86.5042H300.557C300.557 88.0575 300.064 89.1907 299.136 89.9968L300.028 91.0243ZM301.917 86.5042C301.917 84.5641 301.256 82.9893 299.878 81.8807L299.025 82.9409C300.028 83.7483 300.557 84.9026 300.557 86.5042H301.917ZM299.892 81.8923C298.577 80.7745 296.853 80.2498 294.792 80.2498V81.6106C296.621 81.6106 298.004 82.0729 299.011 82.9292L299.892 81.8923ZM294.792 80.2498C293.643 80.2498 292.473 80.4361 291.282 80.8024L291.683 82.1031C292.757 81.7726 293.792 81.6106 294.792 81.6106V80.2498ZM291.298 80.7979C290.103 81.135 289.008 81.6274 288.017 82.2774L288.764 83.4151C289.632 82.8458 290.598 82.4092 291.667 82.1076L291.298 80.7979ZM287.71 82.8463V85.7639H289.071V82.8463H287.71ZM287.71 85.7639C287.71 87.8723 288.319 89.5953 289.621 90.83L290.557 89.8428C289.594 88.9292 289.071 87.6039 289.071 85.7639H287.71ZM289.621 90.83C290.917 92.0602 292.719 92.6281 294.923 92.6281V91.2672C292.946 91.2672 291.525 90.761 290.557 89.8428L289.621 90.83Z" fill="#CBC2AD" mask="url(#path-2-outside-1_44_29)"/>
</svg>
