<svg width="189" height="86" viewBox="0 0 189 86" fill="none" xmlns="http://www.w3.org/2000/svg">
<path d="M11.9029 53.6352C20.8435 47.3098 25.1609 45.7825 37.5263 47.7949C48.4563 51.2563 53.4352 54.1647 57.7706 60.7876C59.7881 65.0401 57.9585 68.6585 56.0907 71.1524C54.2053 73.6696 51.3795 74.2957 48.3801 74.2719C38.0199 74.1896 25.3392 63.9453 22.7068 54.8256C18.7347 41.0653 25.0812 26.3803 39.0084 21.24C45.6132 18.8023 56.5269 21.404 62.9497 23.687C67.171 25.1875 72.2603 28.4415 75.1324 31.9731C78.7848 36.4642 75.4701 44.5729 68.3516 45.0882C60.4103 45.6631 51.9043 39.1114 46.2169 34.2302C41.5426 30.2186 35.4746 17.7069 34.6709 12.0973" stroke="#DEDEDE" stroke-width="5.36094" stroke-linecap="square"/>
<mask id="path-2-outside-1_22_6" maskUnits="userSpaceOnUse" x="93.7" y="38.5" width="94" height="21" fill="black">
<rect fill="white" x="93.7" y="38.5" width="94" height="21"/>
<path d="M107.796 48.8668C108.922 49.2011 109.785 49.7466 110.383 50.5032C110.981 51.2597 111.28 52.1923 111.28 53.3007C111.28 54.9371 110.656 56.2127 109.406 57.1276C108.175 58.0426 106.406 58.5 104.101 58.5H94.9961V40.0254H103.6C105.747 40.0254 107.418 40.4389 108.615 41.2658C109.811 42.0928 110.409 43.2717 110.409 44.8024C110.409 45.7173 110.181 46.5267 109.723 47.2305C109.266 47.9167 108.623 48.4622 107.796 48.8668ZM99.2453 47.6792H103.231C104.163 47.6792 104.867 47.4944 105.342 47.1249C105.817 46.7379 106.055 46.1748 106.055 45.4358C106.055 44.7144 105.808 44.1602 105.316 43.7731C104.84 43.386 104.145 43.1925 103.231 43.1925H99.2453V47.6792ZM103.943 55.333C105.949 55.333 106.952 54.5412 106.952 52.9576C106.952 51.4269 105.949 50.6615 103.943 50.6615H99.2453V55.333H103.943ZM130.55 40.0254V58.5H126.406V56.2567C125.139 57.9634 123.274 58.8167 120.811 58.8167C118.629 58.8167 116.922 58.1305 115.691 56.7581C114.477 55.3681 113.87 53.3975 113.87 50.8463V40.0254H118.145V50.7143C118.145 52.1923 118.488 53.3095 119.175 54.0661C119.878 54.8051 120.829 55.1746 122.025 55.1746C123.309 55.1746 124.339 54.7787 125.113 53.9869C125.887 53.1776 126.274 51.9899 126.274 50.424V40.0254H130.55ZM137.834 40.0254L141.661 45.6206L145.488 40.0254H150.502L144.353 48.8668L151.004 58.5H145.963L141.661 52.377L137.411 58.5H132.476L139.074 49.0516L132.898 40.0254H137.834ZM160.321 39.8407C162.907 39.8407 164.922 40.4741 166.365 41.7409C167.825 43.0077 168.555 44.7848 168.555 47.0722C168.555 49.2363 167.895 50.9342 166.576 52.1659C165.274 53.3975 163.444 54.0133 161.086 54.0133C160.312 54.0133 159.555 53.9342 158.816 53.7758C158.095 53.6175 157.312 53.3535 156.468 52.984V58.5H152.245V47.5736C152.245 45.0927 152.931 43.1837 154.303 41.8465C155.693 40.5093 157.699 39.8407 160.321 39.8407ZM160.347 50.7935C161.596 50.7935 162.555 50.4768 163.224 49.8433C163.91 49.2099 164.253 48.3126 164.253 47.1513C164.253 45.9725 163.91 45.0575 163.224 44.4065C162.555 43.7555 161.623 43.43 160.426 43.43C159.177 43.43 158.201 43.7907 157.497 44.5121C156.811 45.2335 156.468 46.2452 156.468 47.5472V49.6058C156.995 49.9753 157.594 50.2656 158.262 50.4768C158.948 50.6879 159.643 50.7935 160.347 50.7935ZM179.665 45.5942C181.882 45.5942 183.632 46.166 184.917 47.3097C186.219 48.4534 186.87 50.0545 186.87 52.1131C186.87 54.2597 186.148 55.9224 184.706 57.1012C183.263 58.2801 181.213 58.8695 178.556 58.8695C175.935 58.8695 173.946 58.2801 172.592 57.1012C171.237 55.9224 170.559 54.1893 170.559 51.9019V40.0254H174.782V46.6763C176.454 45.9549 178.081 45.5942 179.665 45.5942ZM178.741 55.5441C179.955 55.5441 180.896 55.2538 181.565 54.6731C182.234 54.0925 182.568 53.2831 182.568 52.245C182.568 51.1718 182.207 50.3448 181.486 49.7642C180.782 49.1659 179.841 48.8668 178.662 48.8668C178.011 48.8668 177.342 48.9724 176.656 49.1835C175.97 49.3771 175.345 49.6586 174.782 50.0281V51.7964C174.782 52.9928 175.125 53.9166 175.811 54.5676C176.498 55.2186 177.474 55.5441 178.741 55.5441Z"/>
</mask>
<path d="M107.796 48.8668C108.922 49.2011 109.785 49.7466 110.383 50.5032C110.981 51.2597 111.28 52.1923 111.28 53.3007C111.28 54.9371 110.656 56.2127 109.406 57.1276C108.175 58.0426 106.406 58.5 104.101 58.5H94.9961V40.0254H103.6C105.747 40.0254 107.418 40.4389 108.615 41.2658C109.811 42.0928 110.409 43.2717 110.409 44.8024C110.409 45.7173 110.181 46.5267 109.723 47.2305C109.266 47.9167 108.623 48.4622 107.796 48.8668ZM99.2453 47.6792H103.231C104.163 47.6792 104.867 47.4944 105.342 47.1249C105.817 46.7379 106.055 46.1748 106.055 45.4358C106.055 44.7144 105.808 44.1602 105.316 43.7731C104.84 43.386 104.145 43.1925 103.231 43.1925H99.2453V47.6792ZM103.943 55.333C105.949 55.333 106.952 54.5412 106.952 52.9576C106.952 51.4269 105.949 50.6615 103.943 50.6615H99.2453V55.333H103.943ZM130.55 40.0254V58.5H126.406V56.2567C125.139 57.9634 123.274 58.8167 120.811 58.8167C118.629 58.8167 116.922 58.1305 115.691 56.7581C114.477 55.3681 113.87 53.3975 113.87 50.8463V40.0254H118.145V50.7143C118.145 52.1923 118.488 53.3095 119.175 54.0661C119.878 54.8051 120.829 55.1746 122.025 55.1746C123.309 55.1746 124.339 54.7787 125.113 53.9869C125.887 53.1776 126.274 51.9899 126.274 50.424V40.0254H130.55ZM137.834 40.0254L141.661 45.6206L145.488 40.0254H150.502L144.353 48.8668L151.004 58.5H145.963L141.661 52.377L137.411 58.5H132.476L139.074 49.0516L132.898 40.0254H137.834ZM160.321 39.8407C162.907 39.8407 164.922 40.4741 166.365 41.7409C167.825 43.0077 168.555 44.7848 168.555 47.0722C168.555 49.2363 167.895 50.9342 166.576 52.1659C165.274 53.3975 163.444 54.0133 161.086 54.0133C160.312 54.0133 159.555 53.9342 158.816 53.7758C158.095 53.6175 157.312 53.3535 156.468 52.984V58.5H152.245V47.5736C152.245 45.0927 152.931 43.1837 154.303 41.8465C155.693 40.5093 157.699 39.8407 160.321 39.8407ZM160.347 50.7935C161.596 50.7935 162.555 50.4768 163.224 49.8433C163.91 49.2099 164.253 48.3126 164.253 47.1513C164.253 45.9725 163.91 45.0575 163.224 44.4065C162.555 43.7555 161.623 43.43 160.426 43.43C159.177 43.43 158.201 43.7907 157.497 44.5121C156.811 45.2335 156.468 46.2452 156.468 47.5472V49.6058C156.995 49.9753 157.594 50.2656 158.262 50.4768C158.948 50.6879 159.643 50.7935 160.347 50.7935ZM179.665 45.5942C181.882 45.5942 183.632 46.166 184.917 47.3097C186.219 48.4534 186.87 50.0545 186.87 52.1131C186.87 54.2597 186.148 55.9224 184.706 57.1012C183.263 58.2801 181.213 58.8695 178.556 58.8695C175.935 58.8695 173.946 58.2801 172.592 57.1012C171.237 55.9224 170.559 54.1893 170.559 51.9019V40.0254H174.782V46.6763C176.454 45.9549 178.081 45.5942 179.665 45.5942ZM178.741 55.5441C179.955 55.5441 180.896 55.2538 181.565 54.6731C182.234 54.0925 182.568 53.2831 182.568 52.245C182.568 51.1718 182.207 50.3448 181.486 49.7642C180.782 49.1659 179.841 48.8668 178.662 48.8668C178.011 48.8668 177.342 48.9724 176.656 49.1835C175.97 49.3771 175.345 49.6586 174.782 50.0281V51.7964C174.782 52.9928 175.125 53.9166 175.811 54.5676C176.498 55.2186 177.474 55.5441 178.741 55.5441Z" fill="#DEDEDE"/>
<path d="M107.796 48.8668L107.615 48.4964L106.665 48.9612L107.679 49.2622L107.796 48.8668ZM110.383 50.5032L110.059 50.7589L110.383 50.5032ZM109.406 57.1276L109.163 56.7949L109.16 56.7966L109.406 57.1276ZM94.9961 58.5H94.5838V58.9124H94.9961V58.5ZM94.9961 40.0254V39.613H94.5838V40.0254H94.9961ZM108.615 41.2658L108.849 40.9266L108.849 40.9266L108.615 41.2658ZM109.723 47.2305L110.066 47.4593L110.069 47.4553L109.723 47.2305ZM99.2453 47.6792H98.8329V48.0916H99.2453V47.6792ZM105.342 47.1249L105.595 47.4505L105.602 47.4446L105.342 47.1249ZM105.316 43.7731L105.055 44.0929L105.061 44.0974L105.316 43.7731ZM99.2453 43.1925V42.7801H98.8329V43.1925H99.2453ZM99.2453 50.6615V50.2491H98.8329V50.6615H99.2453ZM99.2453 55.333H98.8329V55.7453H99.2453V55.333ZM107.679 49.2622C108.742 49.5776 109.524 50.0824 110.059 50.7589L110.706 50.2474C110.045 49.4108 109.103 48.8246 107.914 48.4715L107.679 49.2622ZM110.059 50.7589C110.592 51.4321 110.868 52.2706 110.868 53.3007H111.693C111.693 52.114 111.371 51.0874 110.706 50.2474L110.059 50.7589ZM110.868 53.3007C110.868 54.8144 110.299 55.9627 109.163 56.7949L109.65 57.4603C111.012 56.4627 111.693 55.0598 111.693 53.3007H110.868ZM109.16 56.7966C108.028 57.6381 106.36 58.0877 104.101 58.0877V58.9124C106.453 58.9124 108.322 58.447 109.652 57.4587L109.16 56.7966ZM104.101 58.0877H94.9961V58.9124H104.101V58.0877ZM95.4085 58.5V40.0254H94.5838V58.5H95.4085ZM94.9961 40.4378H103.6V39.613H94.9961V40.4378ZM103.6 40.4378C105.701 40.4378 107.278 40.8435 108.38 41.6051L108.849 40.9266C107.558 40.0343 105.793 39.613 103.6 39.613V40.4378ZM108.38 41.6051C109.458 42.3504 109.997 43.3987 109.997 44.8024H110.822C110.822 43.1447 110.164 41.8352 108.849 40.9266L108.38 41.6051ZM109.997 44.8024C109.997 45.645 109.787 46.3749 109.377 47.0058L110.069 47.4553C110.574 46.6786 110.822 45.7897 110.822 44.8024H109.997ZM109.38 47.0018C108.968 47.6204 108.384 48.12 107.615 48.4964L107.978 49.2372C108.862 48.8043 109.564 48.213 110.066 47.4593L109.38 47.0018ZM99.2453 48.0916H103.231V47.2668H99.2453V48.0916ZM103.231 48.0916C104.207 48.0916 105.017 47.8997 105.595 47.4505L105.089 46.7994C104.716 47.0891 104.119 47.2668 103.231 47.2668V48.0916ZM105.602 47.4446C106.194 46.963 106.467 46.2706 106.467 45.4358H105.642C105.642 46.0791 105.44 46.5127 105.081 46.8052L105.602 47.4446ZM106.467 45.4358C106.467 44.6095 106.178 43.9266 105.57 43.4489L105.061 44.0974C105.438 44.3938 105.642 44.8194 105.642 45.4358H106.467ZM105.576 43.4534C104.999 42.9831 104.195 42.7801 103.231 42.7801V43.6049C104.096 43.6049 104.682 43.789 105.055 44.0928L105.576 43.4534ZM103.231 42.7801H99.2453V43.6049H103.231V42.7801ZM98.8329 43.1925V47.6792H99.6577V43.1925H98.8329ZM103.943 55.7453C104.989 55.7453 105.85 55.5408 106.455 55.0628C107.079 54.5702 107.364 53.8423 107.364 52.9576H106.539C106.539 53.6565 106.323 54.1163 105.944 54.4155C105.547 54.7293 104.903 54.9206 103.943 54.9206V55.7453ZM107.364 52.9576C107.364 52.0943 107.076 51.3853 106.45 50.9077C105.845 50.4462 104.987 50.2491 103.943 50.2491V51.0739C104.905 51.0739 105.551 51.2595 105.95 51.5634C106.327 51.8512 106.539 52.2902 106.539 52.9576H107.364ZM103.943 50.2491H99.2453V51.0739H103.943V50.2491ZM98.8329 50.6615V55.333H99.6577V50.6615H98.8329ZM99.2453 55.7453H103.943V54.9206H99.2453V55.7453ZM130.55 40.0254H130.962V39.613H130.55V40.0254ZM130.55 58.5V58.9124H130.962V58.5H130.55ZM126.406 58.5H125.994V58.9124H126.406V58.5ZM126.406 56.2567H126.818V55.0092L126.075 56.0109L126.406 56.2567ZM115.691 56.7581L115.38 57.0294L115.384 57.0336L115.691 56.7581ZM113.87 40.0254V39.613H113.457V40.0254H113.87ZM118.145 40.0254H118.558V39.613H118.145V40.0254ZM119.175 54.0661L118.869 54.3432L118.876 54.3505L119.175 54.0661ZM125.113 53.9869L125.408 54.2753L125.411 54.272L125.113 53.9869ZM126.274 40.0254V39.613H125.862V40.0254H126.274ZM130.137 40.0254V58.5H130.962V40.0254H130.137ZM130.55 58.0877H126.406V58.9124H130.55V58.0877ZM126.818 58.5V56.2567H125.994V58.5H126.818ZM126.075 56.0109C124.899 57.5952 123.167 58.4044 120.811 58.4044V59.2291C123.381 59.2291 125.38 58.3316 126.737 56.5025L126.075 56.0109ZM120.811 58.4044C118.723 58.4044 117.137 57.7519 115.998 56.4827L115.384 57.0336C116.708 58.5092 118.536 59.2291 120.811 59.2291V58.4044ZM116.001 56.4869C114.874 55.1965 114.282 53.3359 114.282 50.8463H113.457C113.457 53.4591 114.079 55.5398 115.38 57.0294L116.001 56.4869ZM114.282 50.8463V40.0254H113.457V50.8463H114.282ZM113.87 40.4378H118.145V39.613H113.87V40.4378ZM117.733 40.0254V50.7143H118.558V40.0254H117.733ZM117.733 50.7143C117.733 52.2495 118.089 53.4828 118.869 54.3432L119.48 53.7891C118.888 53.1363 118.558 52.1351 118.558 50.7143H117.733ZM118.876 54.3505C119.671 55.1854 120.737 55.587 122.025 55.587V54.7622C120.92 54.7622 120.086 54.4248 119.473 53.7817L118.876 54.3505ZM122.025 55.587C123.401 55.587 124.543 55.1592 125.408 54.2752L124.818 53.6986C124.134 54.3983 123.218 54.7622 122.025 54.7622V55.587ZM125.411 54.272C126.283 53.3598 126.687 52.0535 126.687 50.424H125.862C125.862 51.9264 125.491 52.9954 124.815 53.7019L125.411 54.272ZM126.687 50.424V40.0254H125.862V50.424H126.687ZM126.274 40.4378H130.55V39.613H126.274V40.4378ZM137.834 40.0254L138.174 39.7926L138.051 39.613H137.834V40.0254ZM141.661 45.6206L141.32 45.8534L141.661 46.351L142.001 45.8534L141.661 45.6206ZM145.488 40.0254V39.613H145.27L145.147 39.7926L145.488 40.0254ZM150.502 40.0254L150.841 40.2609L151.291 39.613H150.502V40.0254ZM144.353 48.8668L144.014 48.6314L143.851 48.866L144.013 49.1011L144.353 48.8668ZM151.004 58.5V58.9124H151.789L151.343 58.2657L151.004 58.5ZM145.963 58.5L145.625 58.7371L145.748 58.9124H145.963V58.5ZM141.661 52.377L141.998 52.1399L141.659 51.6567L141.322 52.1419L141.661 52.377ZM137.411 58.5V58.9124H137.627L137.75 58.7351L137.411 58.5ZM132.476 58.5L132.138 58.2639L131.685 58.9124H132.476V58.5ZM139.074 49.0516L139.412 49.2877L139.576 49.054L139.415 48.8187L139.074 49.0516ZM132.898 40.0254V39.613H132.117L132.558 40.2583L132.898 40.0254ZM137.493 40.2582L141.32 45.8534L142.001 45.3878L138.174 39.7926L137.493 40.2582ZM142.001 45.8534L145.828 40.2582L145.147 39.7926L141.32 45.3878L142.001 45.8534ZM145.488 40.4378H150.502V39.613H145.488V40.4378ZM150.164 39.7899L144.014 48.6314L144.691 49.1023L150.841 40.2609L150.164 39.7899ZM144.013 49.1011L150.664 58.7343L151.343 58.2657L144.692 48.6325L144.013 49.1011ZM151.004 58.0877H145.963V58.9124H151.004V58.0877ZM146.3 58.263L141.998 52.1399L141.323 52.6141L145.625 58.7371L146.3 58.263ZM141.322 52.1419L137.073 58.2649L137.75 58.7351L141.999 52.6121L141.322 52.1419ZM137.411 58.0877H132.476V58.9124H137.411V58.0877ZM132.814 58.7361L139.412 49.2877L138.736 48.8155L132.138 58.2639L132.814 58.7361ZM139.415 48.8187L133.239 39.7925L132.558 40.2583L138.734 49.2844L139.415 48.8187ZM132.898 40.4378H137.834V39.613H132.898V40.4378ZM166.365 41.7409L166.093 42.0508L166.094 42.0524L166.365 41.7409ZM166.576 52.1659L166.294 51.8644L166.292 51.8663L166.576 52.1659ZM158.816 53.7758L158.728 54.1786L158.73 54.179L158.816 53.7758ZM156.468 52.984L156.633 52.6062L156.055 52.3535V52.984H156.468ZM156.468 58.5V58.9124H156.88V58.5H156.468ZM152.245 58.5H151.832V58.9124H152.245V58.5ZM154.303 41.8465L154.017 41.5493L154.016 41.5511L154.303 41.8465ZM163.224 49.8433L162.944 49.5403L162.94 49.544L163.224 49.8433ZM163.224 44.4065L162.936 44.702L162.94 44.7057L163.224 44.4065ZM157.497 44.5121L157.202 44.2241L157.198 44.2279L157.497 44.5121ZM156.468 49.6058H156.055V49.8205L156.231 49.9437L156.468 49.6058ZM158.262 50.4768L158.138 50.87L158.141 50.8709L158.262 50.4768ZM160.321 40.253C162.842 40.253 164.748 40.87 166.093 42.0508L166.637 41.431C165.096 40.0782 162.972 39.4283 160.321 39.4283V40.253ZM166.094 42.0524C167.448 43.2264 168.143 44.8803 168.143 47.0722H168.968C168.968 44.6894 168.202 42.7891 166.635 41.4294L166.094 42.0524ZM168.143 47.0722C168.143 49.1466 167.514 50.7261 166.294 51.8644L166.857 52.4673C168.277 51.1424 168.968 49.326 168.968 47.0722H168.143ZM166.292 51.8663C165.089 53.005 163.373 53.601 161.086 53.601V54.4257C163.515 54.4257 165.459 53.7901 166.859 52.4655L166.292 51.8663ZM161.086 53.601C160.34 53.601 159.613 53.5247 158.903 53.3726L158.73 54.179C159.498 54.3436 160.284 54.4257 161.086 54.4257V53.601ZM158.905 53.373C158.215 53.2217 157.458 52.9674 156.633 52.6062L156.302 53.3618C157.166 53.7396 157.975 54.0132 158.728 54.1786L158.905 53.373ZM156.055 52.984V58.5H156.88V52.984H156.055ZM156.468 58.0877H152.245V58.9124H156.468V58.0877ZM152.657 58.5V47.5736H151.832V58.5H152.657ZM152.657 47.5736C152.657 45.1696 153.32 43.3803 154.591 42.1418L154.016 41.5511C152.542 42.987 151.832 45.0159 151.832 47.5736H152.657ZM154.589 42.1437C155.878 40.9036 157.767 40.253 160.321 40.253V39.4283C157.632 39.4283 155.508 40.1149 154.018 41.5493L154.589 42.1437ZM160.347 51.2059C161.664 51.2059 162.739 50.8713 163.508 50.1427L162.94 49.544C162.372 50.0822 161.529 50.3811 160.347 50.3811V51.2059ZM163.504 50.1464C164.294 49.4166 164.666 48.3977 164.666 47.1513H163.841C163.841 48.2275 163.526 49.0033 162.944 49.5403L163.504 50.1464ZM164.666 47.1513C164.666 45.8891 164.295 44.8546 163.508 44.1074L162.94 44.7057C163.525 45.2605 163.841 46.0559 163.841 47.1513H164.666ZM163.512 44.1111C162.746 43.3656 161.699 43.0176 160.426 43.0176V43.8424C161.547 43.8424 162.365 44.1454 162.936 44.702L163.512 44.1111ZM160.426 43.0176C159.094 43.0176 158.001 43.405 157.202 44.2241L157.792 44.8001C158.4 44.1764 159.26 43.8424 160.426 43.8424V43.0176ZM157.198 44.2279C156.419 45.0472 156.055 46.173 156.055 47.5472H156.88C156.88 46.3174 157.203 45.4197 157.796 44.7963L157.198 44.2279ZM156.055 47.5472V49.6058H156.88V47.5472H156.055ZM156.231 49.9437C156.796 50.3392 157.433 50.6473 158.138 50.87L158.386 50.0835C157.754 49.8839 157.195 49.6114 156.704 49.268L156.231 49.9437ZM158.141 50.8709C158.866 51.0939 159.602 51.2059 160.347 51.2059V50.3811C159.685 50.3811 159.031 50.2819 158.384 50.0826L158.141 50.8709ZM184.917 47.3097L184.643 47.6177L184.645 47.6195L184.917 47.3097ZM184.706 57.1012L184.445 56.7819L184.706 57.1012ZM172.592 57.1012L172.862 56.7901L172.592 57.1012ZM170.559 40.0254V39.613H170.147V40.0254H170.559ZM174.782 40.0254H175.195V39.613H174.782V40.0254ZM174.782 46.6763H174.37V47.3034L174.946 47.0549L174.782 46.6763ZM181.565 54.6731L181.295 54.3618L181.565 54.6731ZM181.486 49.7642L181.219 50.0785L181.227 50.0854L181.486 49.7642ZM176.656 49.1835L176.768 49.5805L176.777 49.5777L176.656 49.1835ZM174.782 50.0281L174.556 49.6833L174.37 49.8055V50.0281H174.782ZM175.812 54.5676L175.528 54.8667L175.812 54.5676ZM179.665 46.0066C181.811 46.0066 183.453 46.5588 184.643 47.6177L185.191 47.0017C183.811 45.7732 181.953 45.1818 179.665 45.1818V46.0066ZM184.645 47.6195C185.841 48.6701 186.458 50.1487 186.458 52.1131H187.282C187.282 49.9603 186.597 48.2366 185.189 46.9999L184.645 47.6195ZM186.458 52.1131C186.458 54.157 185.776 55.6938 184.445 56.7819L184.967 57.4206C186.521 56.151 187.282 54.3623 187.282 52.1131H186.458ZM184.445 56.7819C183.101 57.8795 181.158 58.4571 178.556 58.4571V59.2819C181.269 59.2819 183.424 58.6807 184.967 57.4206L184.445 56.7819ZM178.556 58.4571C175.989 58.4571 174.114 57.8793 172.862 56.7901L172.321 57.4123C173.779 58.6809 175.88 59.2819 178.556 59.2819V58.4571ZM172.862 56.7901C171.621 55.71 170.972 54.105 170.972 51.9019H170.147C170.147 54.2735 170.853 56.1348 172.321 57.4123L172.862 56.7901ZM170.972 51.9019V40.0254H170.147V51.9019H170.972ZM170.559 40.4378H174.782V39.613H170.559V40.4378ZM174.37 40.0254V46.6763H175.195V40.0254H174.37ZM174.946 47.0549C176.573 46.3525 178.145 46.0066 179.665 46.0066V45.1818C178.017 45.1818 176.334 45.5573 174.619 46.2976L174.946 47.0549ZM178.741 55.9565C180.018 55.9565 181.068 55.651 181.835 54.9845L181.295 54.3618C180.725 54.8566 179.893 55.1317 178.741 55.1317V55.9565ZM181.835 54.9845C182.61 54.3118 182.98 53.3799 182.98 52.245H182.156C182.156 53.1864 181.857 53.8732 181.295 54.3618L181.835 54.9845ZM182.98 52.245C182.98 51.0692 182.579 50.1148 181.744 49.4429L181.227 50.0854C181.835 50.5748 182.156 51.2743 182.156 52.245H182.98ZM181.753 49.45C180.956 48.7725 179.911 48.4545 178.662 48.4545V49.2792C179.771 49.2792 180.608 49.5594 181.219 50.0784L181.753 49.45ZM178.662 48.4545C177.966 48.4545 177.256 48.5674 176.535 48.7894L176.777 49.5777C177.428 49.3774 178.056 49.2792 178.662 49.2792V48.4545ZM176.544 48.7866C175.82 48.991 175.156 49.2894 174.556 49.6833L175.008 50.3729C175.534 50.0278 176.12 49.7632 176.768 49.5804L176.544 48.7866ZM174.37 50.0281V51.7964H175.195V50.0281H174.37ZM174.37 51.7964C174.37 53.0742 174.739 54.1184 175.528 54.8667L176.095 54.2684C175.512 53.7147 175.195 52.9115 175.195 51.7964H174.37ZM175.528 54.8667C176.313 55.6123 177.405 55.9565 178.741 55.9565V55.1317C177.543 55.1317 176.682 54.8249 176.095 54.2684L175.528 54.8667Z" fill="#DEDEDE" mask="url(#path-2-outside-1_22_6)"/>
</svg>
